<svg width="286" height="89" viewBox="0 0 286 89" fill="none" xmlns="http://www.w3.org/2000/svg">
<path d="M139.434 23.1234L138.142 22.2649C137.976 22.1433 137.777 22.0654 137.567 22.0399C137.356 22.0144 137.141 22.0421 136.947 22.1201C136.752 22.1981 136.584 22.3233 136.463 22.4821C136.341 22.6409 136.269 22.8271 136.256 23.0203L135.869 36.4472C135.869 36.584 135.9 36.7193 135.958 36.8451C136.017 36.9709 136.103 37.0845 136.212 37.1792C136.32 37.2738 136.449 37.3475 136.589 37.3958C136.729 37.4441 136.879 37.466 137.029 37.4603L152.164 37.2542C152.376 37.2629 152.585 37.2145 152.767 37.1151C152.948 37.0157 153.093 36.8697 153.184 36.6955C153.275 36.5212 153.307 36.3265 153.276 36.1357C153.246 35.9449 153.154 35.7666 153.013 35.6231L150.853 33.4854C150.661 33.299 150.534 33.0647 150.489 32.8124C150.444 32.5602 150.482 32.3013 150.599 32.0689C151.166 30.9407 151.985 29.9322 153.003 29.1071C154.547 27.897 156.432 27.1032 158.444 26.8149C160.485 26.5022 162.578 26.6435 164.545 27.227C166.422 27.6233 168.159 28.4408 169.6 29.605C170.812 30.6265 171.721 31.9114 172.24 33.3395C172.318 33.5447 172.464 33.7227 172.659 33.8488C172.853 33.975 173.086 34.043 173.324 34.0434L184.357 34.1808C184.516 34.1878 184.674 34.1634 184.822 34.1093C184.969 34.0553 185.102 33.9729 185.212 33.8677C185.321 33.7625 185.404 33.6371 185.455 33.5C185.506 33.3629 185.524 33.2173 185.507 33.0733C185.201 30.8499 184.402 28.7062 183.159 26.772C181.465 24.2378 179.139 22.1026 176.37 20.5393C172.865 18.3803 168.873 16.9661 164.687 16.4013C159.567 15.6134 154.306 16.26 149.599 18.2557C147.075 19.3867 144.802 20.9321 142.895 22.8143C142.452 23.2323 141.861 23.4931 141.227 23.5497C140.592 23.6064 139.957 23.4552 139.434 23.1234Z" fill="#FFC539"/>
<path d="M0.129521 51.2347C0.129521 46.6477 -0.196159 42.032 0.185353 37.4927C1.54391 21.5145 15.3063 12.5411 28.4917 19.2879C31.8322 20.9985 34.2516 20.7883 37.4805 19.2115C51.0102 12.5889 65.0796 21.9255 66.0101 38.219C66.5033 46.8197 66.1125 55.5255 66.1497 64.1835C66.1497 69.2292 64.0561 71.6088 59.3849 71.5897C54.7137 71.5705 52.0138 68.8566 52.0324 63.9446C52.0324 57.0736 52.0324 49.849 52.0324 42.978C52.0324 37.7985 51.9686 32.6763 46.4414 32.5139C40.9141 32.3514 40.5128 37.789 40.4942 42.978C40.4942 50.1166 40.4942 57.0927 40.4942 64.2218C40.4942 69.3631 37.4619 71.6566 32.8558 71.5706C28.501 71.4941 25.8511 68.8757 25.8325 64.2217C25.7953 56.8379 25.8511 50.3683 25.8325 42.978C25.8325 37.8654 24.6952 32.5808 19.7448 32.5521C14.4967 32.5521 14.4417 38.4101 14.4045 43.3221C14.3486 50.4575 14.3486 56.8156 14.4045 63.9446C14.4045 68.847 11.7052 71.5897 6.95021 71.5897C2.19527 71.5897 0.129522 69.277 0.166742 64.2217C0.166742 59.8927 0.166742 55.5637 0.166742 51.2347H0.129521Z" fill="#038167"/>
<path d="M128.471 58.2948C128.317 72.8456 123.883 73.8435 115.376 70.1138C109.929 67.5783 110.673 70.8119 105.381 71.455C89.2542 73.4149 75.4459 64.1018 73.2836 48.7772C71.0385 32.8615 81.5098 18.6923 96.7869 17.0264C113.01 15.2683 127.104 26.6894 128.434 42.8565C128.837 47.9263 128.525 53.1933 128.471 58.2948ZM87.4678 44.2392C87.3304 46.9528 87.9913 49.646 89.3655 51.9726C90.7398 54.2991 92.7646 56.1527 95.1797 57.2951C97.5948 58.4374 100.29 58.8163 102.918 58.383C105.547 57.9498 107.988 56.7242 109.929 54.8637C111.871 53.0033 113.222 50.5931 113.811 47.9429C114.4 45.2928 114.199 42.5238 113.233 39.992C112.268 37.4602 110.583 35.2812 108.394 33.7352C106.205 32.1892 103.613 31.3469 100.951 31.3164C97.485 31.2067 94.1175 32.5064 91.5891 34.9298C89.0606 37.3531 87.5782 40.7017 87.4678 44.2392Z" fill="#038167"/>
<path d="M209.593 18.5999C212.962 17.1662 216.602 16.4798 220.262 16.5883C227.607 16.7472 234.644 19.5684 240.064 24.5268C242.758 26.9721 244.886 29.9769 246.296 33.3306C246.682 34.2425 246.881 35.2226 246.881 36.2129C246.881 39.6666 244.574 41.5814 241.461 42.6549L213.716 55.1777C215.438 56.3199 217.424 57.003 219.484 57.162C222.881 57.4241 229.172 55.9717 232.035 54.1013C236.032 51.49 242.019 49.1309 243.667 55.2967C244.056 56.788 243.958 58.3647 243.386 59.7959C242.174 62.1171 240.463 64.1412 238.376 65.7228C236.206 67.3664 233.858 68.7596 231.375 69.8759C228.08 71.445 224.463 72.2228 220.814 72.1472C213.438 72.0615 206.373 69.1684 201.056 64.0572C198.374 61.5223 196.248 58.4581 194.813 55.0588C193.406 51.7281 192.717 48.139 192.789 44.5245C192.843 40.9008 193.555 37.3169 194.889 33.947C196.231 30.5722 198.191 27.4767 200.667 24.8188C203.158 22.1255 206.203 20.0039 209.593 18.5999ZM227.901 33.947C226.12 32.9804 223.416 31.613 221.399 31.4162C219.358 31.2296 217.304 31.5606 215.426 32.3788C213.502 33.1469 211.81 34.3987 210.513 36.0128C209.285 37.6019 208.64 40.4098 208.095 42.3425L227.901 33.947Z" fill="#038167"/>
<path d="M255.618 42.6784C254.821 46.8986 255.447 51.2641 257.398 55.0902C258.478 57.1689 258.827 59.551 258.388 61.8522L256.675 71.5948C256.308 73.6634 257.342 75.5875 258.988 75.8766L264.927 76.911C266.562 77.2001 268.186 75.7432 268.553 73.6745L270.265 63.932C270.63 61.6166 271.767 59.4924 273.491 57.904C276.638 54.9572 278.709 51.0422 279.374 46.7823L280.43 40.81C280.656 39.513 280.607 38.183 280.286 36.9063C281.023 35.8146 281.519 34.5787 281.743 33.2806L283.066 25.7623C283.292 24.4654 283.243 23.1353 282.922 21.8586C283.659 20.771 284.155 19.5388 284.378 18.2441L285.702 10.7147C286.425 6.56632 284.356 2.72934 281.075 2.15101L269.198 0.0712627C265.861 -0.495943 262.669 2.39568 261.935 6.55519L260.623 14.0735C260.391 15.37 260.44 16.7013 260.768 17.9772C260.027 19.0681 259.527 20.3039 259.3 21.6028L257.987 29.1211C257.755 30.4177 257.805 31.7489 258.132 33.0248C257.391 34.1118 256.891 35.3439 256.664 36.6393L255.618 42.6784Z" fill="#038167"/>
<path d="M256.731 79.3358L265.505 80.8705C266.718 81.0819 267.407 82.9281 267.04 84.9967C266.673 87.0653 265.405 88.5556 264.193 88.3332L255.429 86.7984C254.217 86.5871 253.528 84.7409 253.883 82.6834C254.239 80.6259 255.529 79.1244 256.731 79.3358Z" fill="#038167"/>
<path fill-rule="evenodd" clip-rule="evenodd" d="M138.8 40.6693C137.976 40.6693 137.185 40.9662 136.602 41.4948C136.018 42.0235 135.686 42.782 135.686 43.4897C135.686 43.5423 135.686 43.5947 135.687 43.6469H135.686V65.567C135.686 69.3669 138.766 72.4474 142.566 72.4474C146.534 72.4474 149.751 69.2305 149.751 65.2624V56.9041L153.282 55.5344L165.765 66.679C165.807 66.7166 165.85 66.7534 165.893 66.7893L170.919 71.3948C174.057 74.2701 178.966 74.0892 181.884 70.9909C184.802 67.8926 184.623 63.0501 181.485 60.1748L175.359 54.5613L180.722 49.9492L183.871 52.2168C184.027 52.3309 184.214 52.4045 184.412 52.4294C184.61 52.4544 184.812 52.4299 184.996 52.3586C185.181 52.2873 185.34 52.1718 185.457 52.0245C185.575 51.8772 185.646 51.7036 185.663 51.5224L186.248 38.2689C186.25 38.1583 186.226 38.0485 186.179 37.9466C186.131 37.8447 186.061 37.753 185.972 37.6772C185.883 37.6014 185.778 37.5432 185.663 37.5063C185.548 37.4695 185.426 37.4547 185.305 37.4631L168.039 37.5231C167.895 37.515 167.752 37.5463 167.629 37.613C167.505 37.6796 167.406 37.7785 167.345 37.8968C167.284 38.0152 167.264 38.1474 167.286 38.2765C167.309 38.4055 167.374 38.5253 167.473 38.6204L170.237 41.1922C170.391 41.3389 170.477 41.5339 170.477 41.7366C170.477 41.9393 170.391 42.1343 170.237 42.281C168.674 43.8232 166.829 45.1081 164.784 46.0787C162.947 47.0868 160.853 47.6422 158.708 47.6904C156.113 47.6368 153.629 46.722 151.726 45.1185C150.9 44.361 150.241 43.4679 149.782 42.4867C149.545 41.9575 149.141 41.504 148.62 41.1835C148.1 40.8631 147.486 40.6901 146.857 40.6864L138.8 40.6693Z" fill="#F69C91"/>
</svg>
