<svg width="5122" height="1583" viewBox="0 0 5122 1583" fill="none" xmlns="http://www.w3.org/2000/svg">
<path d="M2498.15 414.282L2475.01 398.901C2472.04 396.722 2468.47 395.328 2464.7 394.87C2460.92 394.413 2457.08 394.91 2453.59 396.307C2450.1 397.705 2447.1 399.948 2444.92 402.793C2442.74 405.638 2441.46 408.974 2441.22 412.436L2434.29 652.998C2434.29 655.447 2434.83 657.872 2435.89 660.126C2436.94 662.379 2438.48 664.416 2440.43 666.111C2442.37 667.807 2444.67 669.128 2447.18 669.993C2449.7 670.859 2452.38 671.251 2455.07 671.147L2726.23 667.456C2730.02 667.611 2733.78 666.744 2737.03 664.963C2740.28 663.183 2742.88 660.567 2744.5 657.446C2746.13 654.324 2746.7 650.835 2746.16 647.417C2745.61 643.999 2743.97 640.803 2741.44 638.232L2702.75 599.933C2699.31 596.592 2697.03 592.395 2696.22 587.876C2695.41 583.356 2696.09 578.719 2698.19 574.554C2708.36 554.341 2723.03 536.271 2741.27 521.489C2768.93 499.808 2802.69 485.586 2838.75 480.421C2875.31 474.818 2912.81 477.351 2948.06 487.804C2981.67 494.904 3012.8 509.551 3038.61 530.41C3060.34 548.712 3076.62 571.732 3085.92 597.318C3087.32 600.995 3089.94 604.184 3093.42 606.444C3096.9 608.704 3101.07 609.922 3105.35 609.931L3303.01 612.392C3305.86 612.516 3308.7 612.08 3311.34 611.111C3313.99 610.143 3316.37 608.666 3318.33 606.782C3320.28 604.897 3321.77 602.65 3322.69 600.193C3323.6 597.737 3323.92 595.13 3323.62 592.55C3318.14 552.714 3303.83 514.306 3281.56 479.652C3251.21 434.249 3209.53 395.993 3159.92 367.985C3097.13 329.303 3025.59 303.966 2950.59 293.848C2858.87 279.73 2764.6 291.316 2680.28 327.071C2635.06 347.334 2594.33 375.023 2560.16 408.745C2552.24 416.234 2541.64 420.906 2530.28 421.921C2518.91 422.936 2507.52 420.228 2498.15 414.282Z" fill="#FFC539"/>
<path d="M2.32055 917.937C2.32055 835.754 -3.51446 753.057 3.32086 671.73C27.6613 385.459 274.233 224.688 510.468 345.565C570.319 376.213 613.665 372.446 671.515 344.196C913.919 225.544 1165.99 392.821 1182.66 684.742C1191.5 838.835 1184.5 994.812 1185.16 1149.93C1185.16 1240.33 1147.65 1282.97 1063.96 1282.62C980.272 1282.28 931.9 1233.66 932.234 1145.65C932.234 1022.55 932.234 893.111 932.234 770.007C932.234 677.209 931.091 585.437 832.062 582.527C733.033 579.616 725.843 677.038 725.509 770.007C725.509 897.905 725.509 1022.89 725.509 1150.62C725.509 1242.73 671.182 1283.82 588.658 1282.28C510.635 1280.91 463.158 1234 462.825 1150.62C462.158 1018.33 463.158 902.413 462.825 770.007C462.825 678.407 442.449 583.725 353.756 583.212C259.729 583.212 258.743 688.167 258.076 776.171C257.076 904.011 257.076 1017.93 258.076 1145.65C258.076 1233.49 209.714 1282.62 124.523 1282.62C39.3313 1282.62 2.32056 1241.19 2.98742 1150.62C2.98742 1073.06 2.98742 995.497 2.98742 917.937H2.32055Z" fill="#038167"/>
<path d="M2301.73 1044.43C2298.97 1305.13 2219.53 1323.01 2067.12 1256.19C1969.54 1210.76 1982.85 1268.69 1888.05 1280.22C1599.11 1315.33 1351.72 1148.47 1312.98 873.911C1272.76 588.759 1460.36 334.898 1734.07 305.051C2024.74 273.553 2277.24 478.178 2301.07 767.834C2308.29 858.666 2302.7 953.032 2301.73 1044.43ZM1567.11 792.607C1564.65 841.225 1576.49 889.477 1601.11 931.161C1625.73 972.844 1662.01 1006.05 1705.28 1026.52C1748.55 1046.99 1796.83 1053.78 1843.92 1046.01C1891.01 1038.25 1934.76 1016.29 1969.54 982.96C2004.32 949.627 2028.54 906.445 2039.09 858.964C2049.63 811.483 2046.03 761.873 2028.73 716.512C2011.44 671.151 1981.24 632.112 1942.03 604.413C1902.81 576.715 1856.38 561.623 1808.68 561.078C1746.58 559.112 1686.25 582.398 1640.95 625.815C1595.65 669.233 1569.09 729.227 1567.11 792.607Z" fill="#038167"/>
<path d="M3755.16 333.241C3815.52 307.553 3880.73 295.257 3946.31 297.199C4077.91 300.046 4203.98 350.593 4301.08 439.429C4349.36 483.241 4387.47 537.075 4412.74 597.161C4419.66 613.5 4423.22 631.06 4423.22 648.801C4423.22 710.68 4381.88 744.986 4326.11 764.219L3829.02 988.583C3859.87 1009.05 3895.45 1021.29 3932.37 1024.13C3993.22 1028.83 4105.95 1002.81 4157.24 969.297C4228.85 922.512 4336.11 880.245 4365.63 990.715C4372.61 1017.43 4370.84 1045.68 4360.59 1071.32C4338.88 1112.91 4308.23 1149.18 4270.83 1177.51C4231.96 1206.96 4189.88 1231.92 4145.4 1251.92C4086.37 1280.03 4021.57 1293.97 3956.19 1292.61C3824.05 1291.08 3697.45 1239.25 3602.2 1147.67C3554.15 1102.25 3516.06 1047.35 3490.34 986.452C3465.15 926.779 3452.79 862.474 3454.09 797.716C3455.06 732.792 3467.8 668.582 3491.7 608.206C3515.75 547.741 3550.86 492.28 3595.22 444.661C3639.86 396.407 3694.42 358.395 3755.16 333.241ZM4083.17 608.206C4051.26 590.886 4002.81 566.388 3966.66 562.863C3930.11 559.518 3893.3 565.45 3859.65 580.108C3825.19 593.87 3794.88 616.298 3771.64 645.216C3749.64 673.687 3738.07 723.995 3728.32 758.623L4083.17 608.206Z" fill="#038167"/>
<path d="M4579.76 764.639C4565.48 840.249 4576.69 918.463 4611.64 987.014C4631 1024.26 4637.25 1066.94 4629.38 1108.16L4598.69 1282.72C4592.11 1319.78 4610.65 1354.25 4640.14 1359.43L4746.54 1377.96C4775.83 1383.14 4804.92 1357.04 4811.5 1319.98L4842.18 1145.43C4848.72 1103.94 4869.08 1065.88 4899.97 1037.43C4956.35 984.63 4993.46 914.488 5005.37 838.166L5024.3 731.163C5028.35 707.926 5027.47 684.097 5021.71 661.223C5034.92 641.663 5043.81 619.522 5047.81 596.264L5071.53 461.564C5075.58 438.327 5074.69 414.497 5068.94 391.624C5082.14 372.138 5091.04 350.06 5095.04 326.864L5118.75 191.965C5131.7 117.64 5094.64 48.8955 5035.86 38.534L4823.05 1.2724C4763.28 -8.88989 4706.09 42.9176 4692.94 117.441L4669.43 252.141C4665.27 275.371 4666.15 299.223 4672.02 322.082C4658.75 341.627 4649.78 363.769 4645.71 387.041L4622.2 521.741C4618.05 544.971 4618.93 568.822 4624.79 591.681C4611.53 611.156 4602.56 633.232 4598.49 656.441L4579.76 764.639Z" fill="#038167"/>
<path d="M4599.69 1421.41L4756.9 1448.9C4778.62 1452.69 4790.97 1485.77 4784.4 1522.83C4777.82 1559.89 4755.11 1586.59 4733.39 1582.61L4576.37 1555.11C4554.66 1551.32 4542.3 1518.25 4548.68 1481.38C4555.05 1444.52 4578.17 1417.62 4599.69 1421.41Z" fill="#038167"/>
<path fill-rule="evenodd" clip-rule="evenodd" d="M2486.79 728.648C2472.02 728.648 2457.86 733.967 2447.4 743.439C2436.95 752.912 2431.01 766.5 2431.01 779.18C2431.01 780.123 2431.01 781.062 2431.01 782H2431V1180.74C2431 1245.5 2483.5 1298 2548.26 1298H2560.55C2628.18 1298 2683 1243.18 2683 1175.55V1019.52L2746.27 994.978L2969.91 1194.65C2970.66 1195.32 2971.42 1195.97 2972.19 1196.61L3066.97 1283.46C3120.59 1332.59 3204.47 1329.5 3254.32 1276.56L3263.08 1267.25C3312.94 1214.31 3309.89 1131.57 3256.28 1082.44L3141.8 977.544L3237.88 894.911L3294.3 935.538C3297.09 937.583 3300.44 938.9 3303.99 939.348C3307.55 939.796 3311.17 939.357 3314.47 938.079C3317.77 936.801 3320.62 934.731 3322.73 932.092C3324.83 929.453 3326.11 926.344 3326.42 923.097L3336.9 685.642C3336.93 683.66 3336.5 681.693 3335.65 679.868C3334.8 678.042 3333.53 676.398 3331.94 675.04C3330.35 673.682 3328.47 672.64 3326.41 671.979C3324.35 671.319 3322.17 671.055 3319.99 671.205L3010.65 672.28C3008.07 672.135 3005.51 672.696 3003.3 673.89C3001.08 675.084 2999.31 676.856 2998.22 678.976C2997.12 681.096 2996.76 683.466 2997.16 685.778C2997.57 688.089 2998.74 690.236 3000.5 691.94L3050.03 738.017C3052.79 740.646 3054.33 744.138 3054.33 747.771C3054.33 751.403 3052.79 754.895 3050.03 757.524C3022.03 785.155 2988.97 808.175 2952.33 825.565C2919.42 843.626 2881.9 853.579 2843.47 854.441C2796.97 853.482 2752.48 837.091 2718.37 808.363C2703.59 794.79 2691.77 778.789 2683.55 761.21C2679.31 751.728 2672.06 743.603 2662.73 737.862C2653.41 732.12 2642.42 729.021 2631.15 728.955L2486.79 728.648Z" fill="#F69C91"/>
</svg>
